<svg width="60" height="60" viewBox="0 0 60 60" fill="none" xmlns="http://www.w3.org/2000/svg">
<circle cx="30" cy="30" r="30" fill="white"/>
<path fill-rule="evenodd" clip-rule="evenodd" d="M25.0573 30.9427C24.8074 30.6926 24.667 30.3536 24.667 30C24.667 29.6465 24.8074 29.3074 25.0573 29.0573L32.6 21.5147C32.8515 21.2718 33.1883 21.1374 33.5379 21.1404C33.8875 21.1435 34.2219 21.2837 34.4691 21.5309C34.7163 21.7781 34.8565 22.1125 34.8596 22.4621C34.8626 22.8117 34.7282 23.1485 34.4853 23.4L27.8853 30L34.4853 36.6C34.7282 36.8515 34.8626 37.1883 34.8596 37.5379C34.8565 37.8875 34.7163 38.2219 34.4691 38.4691C34.2219 38.7163 33.8875 38.8565 33.5379 38.8596C33.1883 38.8626 32.8515 38.7282 32.6 38.4853L25.0573 30.9427Z" fill="#F78E32"/>
</svg>
