<svg width="20" height="20" viewBox="0 0 20 20" fill="none" xmlns="http://www.w3.org/2000/svg">
<path fill-rule="evenodd" clip-rule="evenodd" d="M16.875 9.58333C16.875 13.6104 13.6104 16.875 9.58332 16.875C5.55625 16.875 2.29166 13.6104 2.29166 9.58333C2.29166 5.55625 5.55625 2.29166 9.58332 2.29166C13.6104 2.29166 16.875 5.55625 16.875 9.58333ZM9.58332 18.125C14.3008 18.125 18.125 14.3008 18.125 9.58333C18.125 4.8659 14.3008 1.04166 9.58332 1.04166C4.86589 1.04166 1.04166 4.8659 1.04166 9.58333C1.04166 14.3008 4.86589 18.125 9.58332 18.125ZM17.1086 16.2247C16.8645 15.9806 16.4688 15.9806 16.2247 16.2247C15.9806 16.4688 15.9806 16.8645 16.2247 17.1086L17.8914 18.7753C18.1354 19.0193 18.5312 19.0193 18.7752 18.7753C19.0193 18.5312 19.0193 18.1354 18.7752 17.8914L17.1086 16.2247Z" fill="#B5B5B5"/>
</svg>
