<svg width="32" height="32" viewBox="0 0 32 32" fill="none" xmlns="http://www.w3.org/2000/svg">
<path opacity="0.4" d="M2.66667 21.3334C2.66667 19.8606 3.86057 18.6667 5.33333 18.6667H10.6667C12.1394 18.6667 13.3333 19.8606 13.3333 21.3334V26.6667C13.3333 28.1394 12.1394 29.3334 10.6667 29.3334H5.33333C3.86057 29.3334 2.66667 28.1394 2.66667 26.6667V21.3334Z" fill="#F78E32"/>
<path opacity="0.4" d="M2.66667 5.33335C2.66667 3.86059 3.86057 2.66669 5.33333 2.66669H10.6667C12.1394 2.66669 13.3333 3.86059 13.3333 5.33335V10.6667C13.3333 12.1394 12.1394 13.3334 10.6667 13.3334H5.33333C3.86057 13.3334 2.66667 12.1394 2.66667 10.6667V5.33335Z" fill="#F78E32"/>
<path opacity="0.4" d="M18.6667 21.3334C18.6667 19.8606 19.8606 18.6667 21.3333 18.6667H26.6667C28.1394 18.6667 29.3333 19.8606 29.3333 21.3334V26.6667C29.3333 28.1394 28.1394 29.3334 26.6667 29.3334H21.3333C19.8606 29.3334 18.6667 28.1394 18.6667 26.6667V21.3334Z" fill="#F78E32"/>
<path d="M17.4672 10.7617C16.4258 9.72029 16.4258 8.03185 17.4672 6.99046L21.2385 3.21922C22.2799 2.17782 23.9683 2.17782 25.0097 3.21922L28.781 6.99046C29.8224 8.03185 29.8224 9.72029 28.781 10.7617L25.0097 14.5329C23.9683 15.5743 22.2799 15.5743 21.2385 14.5329L17.4672 10.7617Z" fill="#F78E32"/>
</svg>
