<svg width="32" height="32" viewBox="0 0 32 32" fill="none" xmlns="http://www.w3.org/2000/svg">
<path opacity="0.4" d="M26.6667 24V10.6667H5.33333V24C5.33333 26.9455 7.72114 29.3334 10.6667 29.3334H21.3333C24.2788 29.3334 26.6667 26.9455 26.6667 24Z" fill="#8A8A8A"/>
<path d="M22.3583 2.66669H9.64167C7.21854 2.66669 5.03952 4.32636 4.13959 6.85742L3.01338 10.0249C2.78393 10.6702 2.63569 11.356 2.76095 12.0294C3.18276 14.297 4.97015 16 7.11111 16C9.56571 16 11.5556 13.7614 11.5556 11C11.5556 13.7614 13.5454 16 16 16C18.4546 16 20.4444 13.7614 20.4444 11C20.4444 13.7614 22.4343 16 24.8889 16C27.0298 16 28.8172 14.297 29.239 12.0294C29.3643 11.356 29.2161 10.6702 28.9866 10.0249L27.8604 6.85742C26.9605 4.32636 24.7815 2.66669 22.3583 2.66669Z" fill="#8A8A8A"/>
<path fill-rule="evenodd" clip-rule="evenodd" d="M20.8713 22.1757C21.1425 22.6568 20.9724 23.2667 20.4913 23.538C18.8711 24.4514 17.4755 24.9973 16.004 25.0002C14.5306 25.003 13.1323 24.4614 11.5057 23.5361C11.0257 23.263 10.8579 22.6524 11.131 22.1724C11.4041 21.6924 12.0146 21.5246 12.4946 21.7977C14.0096 22.6595 15.043 23.002 16.0001 23.0002C16.959 22.9983 17.9927 22.6507 19.5091 21.7958C19.9901 21.5245 20.6 21.6947 20.8713 22.1757Z" fill="#8A8A8A"/>
</svg>
