<svg width="20" height="20" viewBox="0 0 20 20" fill="none" xmlns="http://www.w3.org/2000/svg">
<path fill-rule="evenodd" clip-rule="evenodd" d="M2.29169 1.04166C1.94651 1.04166 1.66669 1.32148 1.66669 1.66666C1.66669 2.01183 1.94651 2.29166 2.29169 2.29166H3.95835C4.53365 2.29166 5.00002 2.75803 5.00002 3.33332H6.25002C6.25002 2.06767 5.22401 1.04166 3.95835 1.04166H2.29169Z" fill="white"/>
<path opacity="0.4" d="M5 3.33331H15C16.841 3.33331 18.3333 4.8257 18.3333 6.66665V10.8333C18.3333 12.6743 16.841 14.1666 15 14.1666H8.33333C6.49238 14.1666 5 12.6743 5 10.8333V3.33331Z" fill="white"/>
<ellipse cx="7.91669" cy="17.0833" rx="1.25" ry="1.25" fill="white"/>
<ellipse cx="15.4167" cy="17.0833" rx="1.25" ry="1.25" fill="white"/>
<path fill-rule="evenodd" clip-rule="evenodd" d="M11.6667 6.04166C12.0119 6.04166 12.2917 6.32148 12.2917 6.66666V8.12499H13.75C14.0952 8.12499 14.375 8.40481 14.375 8.74999C14.375 9.09517 14.0952 9.37499 13.75 9.37499H12.2917V10.8333C12.2917 11.1785 12.0119 11.4583 11.6667 11.4583C11.3215 11.4583 11.0417 11.1785 11.0417 10.8333L11.0417 9.37499L9.58337 9.37499C9.2382 9.37499 8.95837 9.09517 8.95837 8.74999C8.95837 8.40481 9.2382 8.12499 9.58337 8.12499H11.0417V6.66666C11.0417 6.32148 11.3215 6.04166 11.6667 6.04166Z" fill="white"/>
</svg>
