<svg width="32" height="32" viewBox="0 0 32 32" fill="none" xmlns="http://www.w3.org/2000/svg">
<path opacity="0.4" d="M29.3333 16C29.3333 20.0178 27.5562 23.6206 24.7451 26.0651C22.4041 28.1009 19.346 29.3334 16 29.3334C12.654 29.3334 9.59592 28.1009 7.25489 26.0651C4.4438 23.6206 2.66667 20.0178 2.66667 16C2.66667 8.63622 8.63621 2.66669 16 2.66669C23.3638 2.66669 29.3333 8.63622 29.3333 16Z" fill="#8A8A8A"/>
<path d="M24.7451 26.0651C23.4205 22.5224 20.0048 20 16 20C11.9952 20 8.57946 22.5224 7.25488 26.0651C9.59591 28.1008 12.654 29.3333 16 29.3333C19.346 29.3333 22.4041 28.1008 24.7451 26.0651Z" fill="#8A8A8A"/>
<ellipse cx="4" cy="4" rx="4" ry="4" transform="matrix(1 0 0 -1 12 17.3334)" fill="#8A8A8A"/>
</svg>
